<?xml version="1.0" encoding="UTF-8" standalone="no"?><!DOCTYPE svg PUBLIC "-//W3C//DTD SVG 1.1//EN" "http://www.w3.org/Graphics/SVG/1.1/DTD/svg11.dtd"><svg width="100%" height="100%" viewBox="0 0 266 71" version="1.1" xmlns="http://www.w3.org/2000/svg" xmlns:xlink="http://www.w3.org/1999/xlink" xml:space="preserve" style="fill-rule:evenodd;clip-rule:evenodd;stroke-linejoin:round;stroke-miterlimit:1.41421;"><rect id="Artboard1" x="0" y="0" width="265.99" height="70.6" style="fill:none;"/><g><path d="M22.766,3.707l-2.354,7.021l-2.223,-7.021l-7.976,0l0,10.401l4.446,0l0,-7.28l2.223,7.28l6.538,0l2.353,-7.15l0,7.15l4.839,0l0,-10.401l-7.846,0Z" style="fill:#fff;fill-rule:nonzero;"/><rect x="32.311" y="3.707" width="5.1" height="10.401" style="fill:#fff;"/><path d="M41.334,3.707l-2.354,2.211l0,5.98l2.354,2.21l12.291,0l2.354,-2.34l0,-2.08l-4.969,0l0,1.43l-7.061,0l0,-4.42l7.061,0l0,1.43l4.969,0l0,-2.08l-2.354,-2.341l-12.291,0Z" style="fill:#fff;fill-rule:nonzero;"/><path d="M74.416,3.707l-6.277,0l-5.622,4.551l0,-4.551l-4.969,0l0,10.401l4.969,0l0,-1.43l2.615,-2.08l3.269,3.51l6.276,0l-5.884,-6.24l5.623,-4.161Z" style="fill:#fff;fill-rule:nonzero;"/><path d="M80.43,10.208l7.715,0l0,-2.73l-7.715,0l0,-1.04l8.63,0l0,-2.731l-13.598,0l0,10.401l13.598,0l0,-2.86l-8.63,0l0,-1.04Z" style="fill:#fff;fill-rule:nonzero;"/><path d="M111.028,6.828l4.969,0l0,7.28l4.968,0l0,-7.28l5.1,0l0,-3.121l-15.037,0l0,3.121Z" style="fill:#fff;fill-rule:nonzero;"/><path d="M138.749,7.348l-6.146,0l0,-3.641l-4.969,0l0,10.401l4.969,0l0,-3.38l6.146,0l0,3.38l4.838,0l0,-10.401l-4.838,0l0,3.641Z" style="fill:#fff;fill-rule:nonzero;"/><path d="M176.145,3.707l-2.353,7.021l-2.092,-7.021l-8.107,0l0,10.401l4.576,0l0,-7.28l2.092,7.28l6.669,0l2.223,-7.28l0,7.28l4.969,0l0,-10.401l-7.977,0Z" style="fill:#fff;fill-rule:nonzero;"/><path d="M251.331,10.858l-3.661,-7.151l-7.584,0l0,10.401l4.446,0l0,-7.15l3.53,7.15l7.584,0l0,-10.401l-4.315,0l0,7.151Z" style="fill:#fff;fill-rule:nonzero;"/><path d="M98.213,7.608l-2.615,-3.901l-5.753,0l5.623,7.281l0,3.12l4.968,0l0,-3.12l5.754,-7.281l-5.1,0l-2.877,3.901Z" style="fill:#fff;fill-rule:nonzero;"/><path d="M224.003,3.707l-2.223,2.211l0,5.85l2.223,2.21l12.291,0l2.223,-2.21l0,-5.85l-2.223,-2.211l-12.291,0Zm9.545,7.411l-6.799,0l0,-4.42l6.799,0l0,4.42Z" style="fill:#fff;fill-rule:nonzero;"/><path d="M208.835,7.348l0,-1.04l6.276,0l0,0.52l4.838,0l0,-1.3l-1.699,-1.821l-12.423,0l-1.961,1.951l0,2.99l1.831,1.69l9.414,0l0,1.04l-6.276,0l0,-0.39l-4.969,0l0,1.3l1.831,1.82l12.422,0l1.961,-1.95l0,-3.12l-1.7,-1.69l-9.545,0Z" style="fill:#fff;fill-rule:nonzero;"/><path d="M185.691,3.707l0,10.401l4.969,0l0,-2.6l9.414,0l2.223,-2.21l0,-3.38l-2.223,-2.211l-14.383,0Zm11.637,4.941l-6.668,0l0,-1.95l6.668,0l0,1.95Z" style="fill:#fff;fill-rule:nonzero;"/><path d="M147.509,3.707l-2.223,2.211l0,5.85l2.223,2.21l12.292,0l2.222,-2.21l0,-5.85l-2.222,-2.211l-12.292,0Zm9.546,7.411l-6.8,0l0,-4.42l6.8,0l0,4.42Z" style="fill:#fff;fill-rule:nonzero;"/><path d="M148.817,18.529l-11.768,33.022l9.414,0l12.161,-33.022l-9.807,0Z" style="fill:#fff;fill-rule:nonzero;"/><path d="M100.829,21.779l-22.36,0l0,26.652l12.422,0l0,-19.502l6.276,19.502l18.568,0l6.8,-19.242l0,19.242l13.729,0l0,-26.652l-22.229,0l-6.93,18.331l-6.276,-18.331Z" style="fill:#fff;fill-rule:nonzero;"/><path d="M159.278,21.779l0,7.54l14.252,0l0,19.112l13.861,0l0,-19.112l14.252,0l0,-7.54l-42.365,0Z" style="fill:#fff;fill-rule:nonzero;"/><path d="M75.069,40.89l0,7.541l-35.827,0l-7.584,-7.541l43.411,0Z" style="fill:#ebc700;fill-rule:nonzero;"/><path d="M75.069,21.779l0,7.54l-63.94,0l-7.584,-7.54l71.524,0Z" style="fill:#ebc700;fill-rule:nonzero;"/><path d="M75.069,31.27l0,7.54l-49.949,0l-7.454,-7.54l57.403,0Z" style="fill:#ebc700;fill-rule:nonzero;"/><path d="M190.79,40.89l0,7.541l35.828,0l7.584,-7.541l-43.412,0Z" style="fill:#ebc700;fill-rule:nonzero;"/><path d="M204.52,21.779l0,7.54l50.211,0l7.584,-7.54l-57.795,0Z" style="fill:#ebc700;fill-rule:nonzero;"/><path d="M190.79,31.27l0,7.54l49.95,0l7.584,-7.54l-57.534,0Z" style="fill:#ebc700;fill-rule:nonzero;"/><path d="M258.915,27.239l-0.653,0l0,-0.26l1.569,0l0,0.26l-0.654,0l0,1.43l-0.262,0l0,-1.43Z" style="fill:#fff;fill-rule:nonzero;"/><path d="M260.223,26.979l0.523,0l0.523,1.43l0.654,-1.43l0.523,0l0,1.69l-0.392,0l0,-1.43l-0.524,1.43l-0.392,0l-0.654,-1.43l0,1.43l-0.261,0l0,-1.69Z" style="fill:#fff;fill-rule:nonzero;"/><path d="M64.347,61.042l-3.923,0l0,-1.95l10.723,0l0,1.95l-3.923,0l0,5.85l-2.877,0l0,-5.85Z" style="fill:#fff;fill-rule:nonzero;"/><path d="M72.323,65.072l2.354,0l0,-4.16l-2.354,0l0,-1.82l7.584,0l0,1.82l-2.353,0l0,4.16l2.353,0l0,1.82l-7.584,0l0,-1.82Z" style="fill:#fff;fill-rule:nonzero;"/><path d="M88.93,62.602l0.392,-0.39l0,-1.04l-0.392,-0.39l-4.969,0l0,1.82l4.969,0Zm-7.846,-3.51l9.938,0l1.438,1.43l0,1.82l-1.438,1.43l1.7,2.99l-3.139,0l-1.438,-2.47l-4.184,0l0,2.47l-3.008,0l0,-7.67l0.131,0Z" style="fill:#fff;fill-rule:nonzero;"/><path d="M93.768,59.092l9.545,0l0,1.69l-6.538,0l0,1.3l5.884,0l0,1.69l-5.884,0l0,1.43l6.538,0l0,1.69l-9.545,0l0,-7.8Z" style="fill:#fff;fill-rule:nonzero;"/><path d="M104.359,65.592l0,-1.04l2.877,0l0,0.39l0.261,0.26l4.969,0l0.262,-0.26l0,-0.91l-0.131,-0.13l-6.93,0l-1.308,-1.3l0,-2.08l1.438,-1.43l8.5,0l1.307,1.3l0,1.04l-3.007,0l0,-0.39l-0.131,-0.26l-4.969,0l-0.13,0.26l0,0.91l0.13,0.13l6.931,0l1.176,1.17l0,2.21l-1.438,1.43l-8.499,0l-1.308,-1.3Z" style="fill:#fff;fill-rule:nonzero;"/><path d="M127.373,65.202l0.261,-0.26l0,-1.17l-4.969,0l-0.261,0.26l0,0.91l0.261,0.26l4.708,0Zm-7.846,0.39l0,-1.56l1.177,-1.17l-1.046,-1.04l0,-1.43l1.307,-1.3l8.63,0l1.308,1.3l0,0.91l-3.007,0l0,-0.39l-0.131,-0.13l-4.707,0l-0.262,0.26l0,0.78l0.262,0.26l9.022,0l0,1.69l-1.177,0l0,1.82l-1.308,1.3l-8.63,0l-1.438,-1.3Z" style="fill:#fff;fill-rule:nonzero;"/><path d="M134.303,59.092l2.876,0l1.439,5.72l1.7,-5.72l4.053,0l1.831,5.72l1.307,-5.72l2.616,0l-2.093,7.8l-4.053,0l-1.7,-5.85l-1.831,5.85l-4.053,0l-2.092,-7.8Z" style="fill:#fff;fill-rule:nonzero;"/><path d="M151.04,59.092l3.007,0l0,2.99l5.231,0l0,-2.99l3.007,0l0,7.8l-3.007,0l0,-2.86l-5.231,0l0,2.86l-3.007,0l0,-7.8Z" style="fill:#fff;fill-rule:nonzero;"/><path d="M163.331,59.092l9.545,0l0,1.69l-6.537,0l0,1.3l5.884,0l0,1.69l-5.884,0l0,1.43l6.537,0l0,1.69l-9.545,0l0,-7.8Z" style="fill:#fff;fill-rule:nonzero;"/><path d="M174.053,59.092l9.546,0l0,1.69l-6.669,0l0,1.3l6.015,0l0,1.69l-6.015,0l0,1.43l6.669,0l0,1.69l-9.546,0l0,-7.8Z" style="fill:#fff;fill-rule:nonzero;"/><path d="M184.645,59.222l3.007,0l0,5.72l5.623,0l0,1.95l-8.63,0l0,-7.67Z" style="fill:#fff;fill-rule:nonzero;"/><path d="M194.19,65.592l0,-1.04l3.007,0l0,0.39l0.131,0.26l4.969,0l0.262,-0.26l0,-0.91l-0.131,-0.13l-6.93,0l-1.308,-1.3l0,-2.08l1.438,-1.43l8.5,0l1.307,1.3l0,1.04l-3.007,0l0,-0.39l-0.131,-0.26l-4.969,0l-0.131,0.26l0,0.91l0.131,0.13l6.93,0l1.177,1.17l0,2.21l-1.307,1.43l-8.63,0l-1.308,-1.3Z" style="fill:#fff;fill-rule:nonzero;"/></g></svg>